{"accessors" : [{"bufferView" : 0, "byteOffset" : 0, "componentType" : 5123, "count" : 510, "type" : "SCALAR", "max" : [419], "min" : [0]}, {"bufferView" : 1, "byteOffset" : 0, "componentType" : 5126, "count" : 420, "type" : "VEC3", "max" : [-25.37978172302246, -16.89654541015625, -36.18613815307617], "min" : [-26.989086151123047, -19.759700775146484, -37.6966552734375], "name" : "POSITION"}, {"bufferView" : 0, "byteOffset" : 1020, "componentType" : 5123, "count" : 8688, "type" : "SCALAR", "max" : [7105], "min" : [0]}, {"bufferView" : 2, "byteOffset" : 0, "componentType" : 5126, "count" : 7106, "type" : "VEC3", "max" : [-22.678245544433594, -1.8202660083770752, -36.74581527709961], "min" : [-29.623607635498047, -17.357349395751953, -41.933773040771484], "name" : "POSITION"}, {"bufferView" : 0, "byteOffset" : 18396, "componentType" : 5123, "count" : 2196, "type" : "SCALAR", "max" : [1791], "min" : [0]}, {"bufferView" : 3, "byteOffset" : 0, "componentType" : 5126, "count" : 1792, "type" : "VEC3", "max" : [-17.11140251159668, -25.332355499267578, -46.11116027832031], "min" : [-35.190452575683594, -31.610000610351562, -51.64873504638672], "name" : "POSITION"}, {"bufferView" : 0, "byteOffset" : 22788, "componentType" : 5123, "count" : 3168, "type" : "SCALAR", "max" : [2583], "min" : [0]}, {"bufferView" : 4, "byteOffset" : 0, "componentType" : 5126, "count" : 2584, "type" : "VEC3", "max" : [-13.718754768371582, -21.868234634399414, -43.170265197753906], "min" : [-38.583099365234375, -29.344867706298828, -53.414756774902344], "name" : "POSITION"}, {"bufferView" : 0, "byteOffset" : 29124, "componentType" : 5123, "count" : 3492, "type" : "SCALAR", "max" : [2856], "min" : [0]}, {"bufferView" : 5, "byteOffset" : 0, "componentType" : 5126, "count" : 2857, "type" : "VEC3", "max" : [-13.613554000854492, -18.295595169067383, -40.733524322509766], "min" : [-38.68830108642578, -27.287025451660156, -54.7257080078125], "name" : "POSITION"}, {"bufferView" : 0, "byteOffset" : 36108, "componentType" : 5123, "count" : 3840, "type" : "SCALAR", "max" : [3141], "min" : [0]}, {"bufferView" : 6, "byteOffset" : 0, "componentType" : 5126, "count" : 3142, "type" : "VEC3", "max" : [-13.017050743103027, -15.520997047424316, -39.50284194946289], "min" : [-39.2848014831543, -26.28853988647461, -54.520320892333984], "name" : "POSITION"}, {"bufferView" : 0, "byteOffset" : 43788, "componentType" : 5123, "count" : 3384, "type" : "SCALAR", "max" : [2756], "min" : [0]}, {"bufferView" : 7, "byteOffset" : 0, "componentType" : 5126, "count" : 2757, "type" : "VEC3", "max" : [-12.613868713378906, -12.978334426879883, -37.75817108154297], "min" : [-39.687984466552734, -24.729501724243164, -53.95966720581055], "name" : "POSITION"}, {"bufferView" : 0, "byteOffset" : 50556, "componentType" : 5123, "count" : 3888, "type" : "SCALAR", "max" : [3185], "min" : [0]}, {"bufferView" : 8, "byteOffset" : 0, "componentType" : 5126, "count" : 3186, "type" : "VEC3", "max" : [-12.65563678741455, -10.792269706726074, -36.982357025146484], "min" : [-39.646217346191406, -22.447147369384766, -54.40717315673828], "name" : "POSITION"}, {"bufferView" : 0, "byteOffset" : 58332, "componentType" : 5123, "count" : 5040, "type" : "SCALAR", "max" : [4114], "min" : [0]}, {"bufferView" : 9, "byteOffset" : 0, "componentType" : 5126, "count" : 4115, "type" : "VEC3", "max" : [-13.140027046203613, -8.564546585083008, -37.37687683105469], "min" : [-39.161827087402344, -20.330047607421875, -53.84613037109375], "name" : "POSITION"}, {"bufferView" : 0, "byteOffset" : 68412, "componentType" : 5123, "count" : 4788, "type" : "SCALAR", "max" : [3904], "min" : [0]}, {"bufferView" : 10, "byteOffset" : 0, "componentType" : 5126, "count" : 3905, "type" : "VEC3", "max" : [-13.345213890075684, -6.309085845947266, -37.7819938659668], "min" : [-38.95663833618164, -16.986286163330078, -52.848506927490234], "name" : "POSITION"}, {"bufferView" : 0, "byteOffset" : 77988, "componentType" : 5123, "count" : 4572, "type" : "SCALAR", "max" : [3735], "min" : [0]}, {"bufferView" : 11, "byteOffset" : 0, "componentType" : 5126, "count" : 3736, "type" : "VEC3", "max" : [-14.03368854522705, -4.529591083526611, -38.25141906738281], "min" : [-38.268165588378906, -14.428092002868652, -52.277320861816406], "name" : "POSITION"}, {"bufferView" : 0, "byteOffset" : 87132, "componentType" : 5123, "count" : 6660, "type" : "SCALAR", "max" : [5449], "min" : [0]}, {"bufferView" : 12, "byteOffset" : 0, "componentType" : 5126, "count" : 5450, "type" : "VEC3", "max" : [-14.788925170898438, -2.6443309783935547, -38.82231903076172], "min" : [-37.5129280090332, -10.808056831359863, -51.247230529785156], "name" : "POSITION"}, {"bufferView" : 0, "byteOffset" : 100452, "componentType" : 5123, "count" : 4680, "type" : "SCALAR", "max" : [3833], "min" : [0]}, {"bufferView" : 13, "byteOffset" : 0, "componentType" : 5126, "count" : 3834, "type" : "VEC3", "max" : [-16.12423324584961, -0.41229599714279175, -39.63246154785156], "min" : [-36.17761993408203, -7.121740818023682, -50.599674224853516], "name" : "POSITION"}, {"bufferView" : 0, "byteOffset" : 109812, "componentType" : 5123, "count" : 7482, "type" : "SCALAR", "max" : [6117], "min" : [0]}, {"bufferView" : 14, "byteOffset" : 0, "componentType" : 5126, "count" : 6118, "type" : "VEC3", "max" : [-18.945280075073242, 1.3190820217132568, -41.393463134765625], "min" : [-33.356571197509766, -4.3154401779174805, -48.75519943237305], "name" : "POSITION"}, {"bufferView" : 0, "byteOffset" : 124776, "componentType" : 5123, "count" : 11532, "type" : "SCALAR", "max" : [9439], "min" : [0]}, {"bufferView" : 15, "byteOffset" : 0, "componentType" : 5126, "count" : 9440, "type" : "VEC3", "max" : [-13.827837944030762, -13.774174690246582, -36.38632583618164], "min" : [-38.47401428222656, -27.639619827270508, -41.431556701660156], "name" : "POSITION"}, {"bufferView" : 0, "byteOffset" : 147840, "componentType" : 5123, "count" : 666, "type" : "SCALAR", "max" : [556], "min" : [0]}, {"bufferView" : 16, "byteOffset" : 0, "componentType" : 5126, "count" : 557, "type" : "VEC3", "max" : [-20.192626953125, -11.680496215820312, -37.75190353393555], "min" : [-32.10922622680664, -14.406878471374512, -38.81256866455078], "name" : "POSITION"}, {"bufferView" : 0, "byteOffset" : 149172, "componentType" : 5123, "count" : 972, "type" : "SCALAR", "max" : [806], "min" : [0]}, {"bufferView" : 17, "byteOffset" : 0, "componentType" : 5126, "count" : 807, "type" : "VEC3", "max" : [-20.471118927001953, -8.687549591064453, -38.17595291137695], "min" : [-31.830734252929688, -10.897665977478027, -39.50074005126953], "name" : "POSITION"}, {"bufferView" : 0, "byteOffset" : 151116, "componentType" : 5123, "count" : 1098, "type" : "SCALAR", "max" : [906], "min" : [0]}, {"bufferView" : 18, "byteOffset" : 0, "componentType" : 5126, "count" : 907, "type" : "VEC3", "max" : [-21.31012725830078, -5.498435020446777, -39.07673263549805], "min" : [-30.99172592163086, -7.3699750900268555, -40.29723358154297], "name" : "POSITION"}, {"bufferView" : 0, "byteOffset" : 153312, "componentType" : 5123, "count" : 1014, "type" : "SCALAR", "max" : [850], "min" : [0]}, {"bufferView" : 19, "byteOffset" : 0, "componentType" : 5126, "count" : 851, "type" : "VEC3", "max" : [-21.607711791992188, -2.770848035812378, -40.99869155883789], "min" : [-30.694141387939453, -4.5764570236206055, -42.429771423339844], "name" : "POSITION"}, {"bufferView" : 0, "byteOffset" : 155340, "componentType" : 5123, "count" : 8322, "type" : "SCALAR", "max" : [6928], "min" : [0]}, {"bufferView" : 20, "byteOffset" : 0, "componentType" : 5126, "count" : 6929, "type" : "VEC3", "max" : [-13.827837944030762, -2.770848035812378, -36.90069580078125], "min" : [-38.47401428222656, -27.287025451660156, -42.429771423339844], "name" : "POSITION"}], "asset" : {"generator" : "Aspose.3D 23.9.0", "version" : "2.0"}, "buffers" : [{"uri" : "data:application/octet-stream;base64,", "byteLength" : 1203972}], "bufferViews" : [{"buffer" : 0, "byteOffset" : 0, "byteLength" : 171984, "target" : 34963}, {"buffer" : 0, "byteOffset" : 171988, "byteLength" : 6120, "byteStride" : 12, "target" : 34962}, {"buffer" : 0, "byteOffset" : 178112, "byteLength" : 104256, "byteStride" : 12, "target" : 34962}, {"buffer" : 0, "byteOffset" : 282372, "byteLength" : 26352, "byteStride" : 12, "target" : 34962}, {"buffer" : 0, "byteOffset" : 308728, "byteLength" : 38016, "byteStride" : 12, "target" : 34962}, {"buffer" : 0, "byteOffset" : 346748, "byteLength" : 41904, "byteStride" : 12, "target" : 34962}, {"buffer" : 0, "byteOffset" : 388656, "byteLength" : 46080, "byteStride" : 12, "target" : 34962}, {"buffer" : 0, "byteOffset" : 434740, "byteLength" : 40608, "byteStride" : 12, "target" : 34962}, {"buffer" : 0, "byteOffset" : 475352, "byteLength" : 46656, "byteStride" : 12, "target" : 34962}, {"buffer" : 0, "byteOffset" : 522012, "byteLength" : 60480, "byteStride" : 12, "target" : 34962}, {"buffer" : 0, "byteOffset" : 582496, "byteLength" : 57456, "byteStride" : 12, "target" : 34962}, {"buffer" : 0, "byteOffset" : 639956, "byteLength" : 54864, "byteStride" : 12, "target" : 34962}, {"buffer" : 0, "byteOffset" : 694824, "byteLength" : 79920, "byteStride" : 12, "target" : 34962}, {"buffer" : 0, "byteOffset" : 774748, "byteLength" : 56160, "byteStride" : 12, "target" : 34962}, {"buffer" : 0, "byteOffset" : 830912, "byteLength" : 89784, "byteStride" : 12, "target" : 34962}, {"buffer" : 0, "byteOffset" : 920700, "byteLength" : 138384, "byteStride" : 12, "target" : 34962}, {"buffer" : 0, "byteOffset" : 1059088, "byteLength" : 7992, "byteStride" : 12, "target" : 34962}, {"buffer" : 0, "byteOffset" : 1067084, "byteLength" : 11664, "byteStride" : 12, "target" : 34962}, {"buffer" : 0, "byteOffset" : 1078752, "byteLength" : 13176, "byteStride" : 12, "target" : 34962}, {"buffer" : 0, "byteOffset" : 1091932, "byteLength" : 12168, "byteStride" : 12, "target" : 34962}, {"buffer" : 0, "byteOffset" : 1104104, "byteLength" : 99864, "byteStride" : 12, "target" : 34962}], "meshes" : [{"primitives" : [{"attributes" : {"POSITION" : 1}, "indices" : 0, "mode" : 4}], "name" : ""}, {"primitives" : [{"attributes" : {"POSITION" : 3}, "indices" : 2, "mode" : 4}], "name" : ""}, {"primitives" : [{"attributes" : {"POSITION" : 5}, "indices" : 4, "mode" : 4}], "name" : ""}, {"primitives" : [{"attributes" : {"POSITION" : 7}, "indices" : 6, "mode" : 4}], "name" : ""}, {"primitives" : [{"attributes" : {"POSITION" : 9}, "indices" : 8, "mode" : 4}], "name" : ""}, {"primitives" : [{"attributes" : {"POSITION" : 11}, "indices" : 10, "mode" : 4}], "name" : ""}, {"primitives" : [{"attributes" : {"POSITION" : 13}, "indices" : 12, "mode" : 4}], "name" : ""}, {"primitives" : [{"attributes" : {"POSITION" : 15}, "indices" : 14, "mode" : 4}], "name" : ""}, {"primitives" : [{"attributes" : {"POSITION" : 17}, "indices" : 16, "mode" : 4}], "name" : ""}, {"primitives" : [{"attributes" : {"POSITION" : 19}, "indices" : 18, "mode" : 4}], "name" : ""}, {"primitives" : [{"attributes" : {"POSITION" : 21}, "indices" : 20, "mode" : 4}], "name" : ""}, {"primitives" : [{"attributes" : {"POSITION" : 23}, "indices" : 22, "mode" : 4}], "name" : ""}, {"primitives" : [{"attributes" : {"POSITION" : 25}, "indices" : 24, "mode" : 4}], "name" : ""}, {"primitives" : [{"attributes" : {"POSITION" : 27}, "indices" : 26, "mode" : 4}], "name" : ""}, {"primitives" : [{"attributes" : {"POSITION" : 29}, "indices" : 28, "mode" : 4}], "name" : ""}, {"primitives" : [{"attributes" : {"POSITION" : 31}, "indices" : 30, "mode" : 4}], "name" : ""}, {"primitives" : [{"attributes" : {"POSITION" : 33}, "indices" : 32, "mode" : 4}], "name" : ""}, {"primitives" : [{"attributes" : {"POSITION" : 35}, "indices" : 34, "mode" : 4}], "name" : ""}, {"primitives" : [{"attributes" : {"POSITION" : 37}, "indices" : 36, "mode" : 4}], "name" : ""}, {"primitives" : [{"attributes" : {"POSITION" : 39}, "indices" : 38, "mode" : 4}], "name" : ""}], "nodes" : [{"mesh" : 0, "name" : "xiphoid"}, {"mesh" : 1, "name" : "sternum"}, {"mesh" : 2, "name" : "rib12"}, {"mesh" : 3, "name" : "rib11"}, {"mesh" : 4, "name" : "rib10"}, {"mesh" : 5, "name" : "rib9"}, {"mesh" : 6, "name" : "rib8"}, {"mesh" : 7, "name" : "rib7"}, {"mesh" : 8, "name" : "rib6"}, {"mesh" : 9, "name" : "rib5"}, {"mesh" : 10, "name" : "rib4"}, {"mesh" : 11, "name" : "rib3"}, {"mesh" : 12, "name" : "rib2"}, {"mesh" : 13, "name" : "rib"}, {"mesh" : 14, "name" : "fuscc"}, {"mesh" : 15, "name" : "ccart4"}, {"mesh" : 16, "name" : "ccart3"}, {"mesh" : 17, "name" : "ccart2"}, {"mesh" : 18, "name" : "ccart"}, {"mesh" : 19, "name" : "cartends"}], "scene" : 0, "scenes" : [{"nodes" : [0, 1, 2, 3, 4, 5, 6, 7, 8, 9, 10, 11, 12, 13, 14, 15, 16, 17, 18, 19]}]}